<?xml version="1.0"?>
<svg width="383" height="385.99999999999994" xmlns="http://www.w3.org/2000/svg" xmlns:svg="http://www.w3.org/2000/svg" enable-background="new 0 0 383 386" transform="rotate(0) scale(1, 1)" version="1.1" xml:space="preserve">
 <g class="layer">
  <title>Layer 1</title>
  <path d="m212,387c-70.67,0 -140.83,0 -211,0c0,-128.67 0,-257.33 0,-386c127.67,0 255.33,0 383,0c0,128.67 0,257.33 0,386c-57.17,0 -114.33,0 -172,0m-52.49,-36c41.94,-14.36 83.87,-28.76 125.84,-43.02c3.44,-1.16 4.87,-2.59 4.87,-6.52c-0.15,-73.65 -0.16,-147.3 0.02,-220.95c0.01,-4.53 -1.37,-6.21 -5.53,-7.45c-42.05,-12.49 -84.03,-25.18 -126.04,-37.8c-3.39,-1.02 -6.81,-1.89 -10.44,-2.89c-0.05,1.26 -0.11,1.92 -0.11,2.58c0,77.82 0,155.63 0.01,233.45c0,0.67 -0.22,1.45 0.05,1.97c0.55,1.01 1.18,2.36 2.11,2.71c5.41,2.05 10.91,3.85 16.92,5.92c0,-73.55 0,-146.59 0,-220.03c34.95,10.51 69.39,20.88 103.7,31.2c0.12,0.93 0.24,1.42 0.24,1.91c0.01,65.32 -0.02,130.64 0.09,195.96c0.01,3 -1.24,3.94 -3.7,4.77c-28.62,9.71 -57.2,19.5 -85.79,29.26c-4.77,1.63 -9.54,3.24 -14.74,5.01c0,-7.05 0,-13.37 0,-19.79c-6.28,-2.14 -12.36,-4.22 -18.72,-6.39c0,18.1 0,35.71 0,53.85c3.63,-1.24 7.05,-2.4 11.22,-3.75m-41.14,-236.11c7.89,-2.41 15.77,-4.82 23.59,-7.21c0,-5.25 0,-10.06 0,-15.42c-15.52,4.65 -30.74,9.22 -45.79,13.73c0,57.19 0,113.96 0,170.7c34.77,11.9 69.27,23.72 103.98,35.61c0,-79.46 0,-158.31 0,-237.57c-9.26,2.79 -18.11,5.46 -26.79,8.07c0,5.33 0,10.21 0,15.39c4.42,-1.23 8.5,-2.36 12.87,-3.57c0,65.96 0,131.34 0,197.25c-25.79,-8.84 -51.13,-17.53 -76.23,-26.13c0,-49.8 0,-98.94 0,-148.3c2.58,-0.81 5.07,-1.6 8.37,-2.55m80.05,267.03c-6.33,0 -12.66,0 -18.99,0c0.01,0.28 0.02,0.55 0.02,0.83c9.01,0 18.02,0 27.02,0c0.01,-0.28 0.01,-0.57 0.01,-0.85c-2.36,0 -4.73,0 -8.06,0.02z" fill="#fafafa00" id="svg_1" opacity="1"/>
  <path d="m140.56,354.91c-5.69,1.36 -10.82,2.61 -16.27,3.95c0,-19.6 0,-38.62 0,-58.17c9.54,2.34 18.67,4.59 28.09,6.9c0,6.94 0,13.76 0,21.38c7.8,-1.91 14.96,-3.65 22.12,-5.41c42.9,-10.54 85.79,-21.12 128.73,-31.61c3.69,-0.9 5.57,-1.91 5.55,-5.15c-0.17,-70.56 -0.12,-141.13 -0.14,-211.69c0,-0.53 -0.18,-1.06 -0.36,-2.06c-51.48,-11.15 -103.16,-22.35 -155.61,-33.7c0,79.34 0,158.24 0,237.7c-9.02,-2.24 -17.27,-4.18 -25.39,-6.4c-1.4,-0.38 -2.34,-1.84 -3.17,-2.93c-0.41,-0.56 -0.08,-1.4 -0.08,-2.13c-0.02,-84.07 -0.02,-168.12 -0.02,-252.19c0,-0.71 0.09,-1.43 0.17,-2.79c5.45,1.08 10.58,2.02 15.67,3.12c63.04,13.63 126.03,27.34 189.13,40.83c6.24,1.34 8.31,3.15 8.3,8.05c-0.27,79.56 -0.26,159.13 -0.03,238.69c0,4.25 -2.15,5.79 -7.31,7.04c-62.98,15.4 -125.9,30.96 -189.4,46.57z" fill="#d8c3a5" id="svg_2" opacity="1" transform="matrix(1 0 0 1 0 0)"/>
  <path d="m78.36,99.24c-4.36,0.94 -8.1,1.79 -11.98,2.66c0,53.15 0,106.06 0,159.68c37.74,9.26 75.84,18.62 114.61,28.14c0,-70.97 0,-141.37 0,-212.39c-6.57,1.3 -12.7,2.52 -19.35,3.84c0,-5.58 0,-10.83 0,-16.57c13.05,-2.81 26.36,-5.69 40.28,-8.69c0,85.34 0,170.25 0,255.81c-52.19,-12.8 -104.06,-25.53 -156.33,-38.34c0,-61.1 0,-122.22 0,-183.8c22.63,-4.86 45.51,-9.78 68.84,-14.78c0,5.77 0,10.95 0,16.6c-11.76,2.57 -23.6,5.17 -36.07,7.85z" fill="#d8c3a5" id="svg_3" opacity="1" transform="matrix(1 0 0 1 0 0)"/>
  <path d="m198.9,381.91c2.85,-0.01 5.22,-0.01 7.58,-0.01c0,0.28 0,0.57 -0.01,0.85c-9,0 -18.01,0 -27.02,0c0,-0.28 -0.01,-0.55 -0.02,-0.83c6.33,0 12.66,0 19.47,-0.01z" fill="#fafafa00" id="svg_4" opacity="1"/>
 </g>
</svg>