<svg version="1.1" id="Layer_1" xmlns="http://www.w3.org/2000/svg" xmlns:xlink="http://www.w3.org/1999/xlink" x="0px" y="0px" width="100%px" viewBox="0 0 383 386" enable-background="new 0 0 383 386" xml:space="preserve" height="100px" transform="rotate(0) scale(1, 1)">
<path fill="#fafafa00" opacity="1.000000" stroke="none" d="&#10;M212.000000,387.000000 &#10;&#9;C141.333344,387.000000 71.166695,387.000000 1.000028,387.000000 &#10;&#9;C1.000019,258.333374 1.000019,129.666733 1.000009,1.000080 &#10;&#9;C128.666611,1.000053 256.333221,1.000053 383.999878,1.000027 &#10;&#9;C383.999908,129.666580 383.999908,258.333160 383.999939,386.999878 &#10;&#9;C326.833344,387.000000 269.666656,387.000000 212.000000,387.000000 &#10;M159.510864,350.995941 &#10;&#9;C201.451202,336.635956 243.379257,322.239838 285.354706,307.983246 &#10;&#9;C288.790771,306.816254 290.222656,305.393097 290.215149,301.462738 &#10;&#9;C290.074768,227.813141 290.058594,154.163071 290.240723,80.513664 &#10;&#9;C290.251923,75.980118 288.873932,74.296677 284.706726,73.059090 &#10;&#9;C242.660461,60.571907 200.676285,47.875755 158.668900,35.257458 &#10;&#9;C155.283524,34.240551 151.855515,33.365513 148.234695,32.365845 &#10;&#9;C148.176834,33.634632 148.120468,34.293598 148.120468,34.952564 &#10;&#9;C148.119644,112.768051 148.122955,190.583527 148.126495,268.399017 &#10;&#9;C148.126526,269.065521 147.906052,269.853699 148.184479,270.372620 &#10;&#9;C148.726532,271.382843 149.363785,272.733337 150.287277,273.083130 &#10;&#9;C155.695724,275.131805 161.198349,276.931915 167.208435,279.001617 &#10;&#9;C167.208435,205.450302 167.208435,132.413177 167.208435,58.969864 &#10;&#9;C202.155899,69.484123 236.595917,79.845711 270.912750,90.170235 &#10;&#9;C271.029816,91.101784 271.145264,91.591759 271.145355,92.081749 &#10;&#9;C271.155792,157.400024 271.132294,222.718353 271.241882,288.036469 &#10;&#9;C271.246918,291.039673 269.999939,291.978333 267.537109,292.813690 &#10;&#9;C238.923996,302.518585 210.339142,312.306732 181.745773,322.069855 &#10;&#9;C176.982666,323.696198 172.214600,325.308044 167.009460,327.075806 &#10;&#9;C167.009460,320.025787 167.009460,313.714203 167.009460,307.285187 &#10;&#9;C160.734100,305.146118 154.653366,303.073364 148.285660,300.902802 &#10;&#9;C148.285660,318.996704 148.285660,336.610077 148.285660,354.745392 &#10;&#9;C151.923981,353.509583 155.335358,352.350861 159.510864,350.995941 &#10;M118.368889,114.893608 &#10;&#9;C126.256584,112.482315 134.144272,110.071030 141.956726,107.682739 &#10;&#9;C141.956726,102.426239 141.956726,97.624481 141.956726,92.259956 &#10;&#9;C126.436508,96.913933 111.222450,101.476112 96.172493,105.989075 &#10;&#9;C96.172493,163.184875 96.172493,219.945740 96.172493,276.688141 &#10;&#9;C130.938187,288.593750 165.441864,300.409637 200.150085,312.295563 &#10;&#9;C200.150085,232.839050 200.150085,153.988495 200.150085,74.727974 &#10;&#9;C190.887192,77.519951 182.040115,80.186592 173.356735,82.803894 &#10;&#9;C173.356735,88.126816 173.356735,93.009766 173.356735,98.189857 &#10;&#9;C177.784439,96.961098 181.858582,95.830467 186.234863,94.615982 &#10;&#9;C186.234863,160.580933 186.234863,225.956818 186.234863,291.866699 &#10;&#9;C160.444427,283.028137 135.103668,274.343689 109.998322,265.739929 &#10;&#9;C109.998322,215.940994 109.998322,166.804672 109.998322,117.439682 &#10;&#9;C112.576279,116.626663 115.073959,115.838959 118.368889,114.893608 &#10;M198.418198,381.916382 &#10;&#9;C192.090408,381.916382 185.762619,381.916382 179.434830,381.916382 &#10;&#9;C179.441040,382.195618 179.447266,382.474823 179.453476,382.754059 &#10;&#9;C188.460266,382.754059 197.467056,382.754059 206.473846,382.754059 &#10;&#9;C206.477402,382.468231 206.480972,382.182373 206.484543,381.896545 &#10;&#9;C204.118622,381.896545 201.752701,381.896545 198.418198,381.916382 &#10;z"/>
<path fill="#d8c3a5" opacity="1.000000" stroke="none" d="&#10;M159.128784,351.094055 &#10;&#9;C155.335358,352.350861 151.923981,353.509583 148.285660,354.745392 &#10;&#9;C148.285660,336.610077 148.285660,318.996704 148.285660,300.902802 &#10;&#9;C154.653366,303.073364 160.734100,305.146118 167.009460,307.285187 &#10;&#9;C167.009460,313.714203 167.009460,320.025787 167.009460,327.075806 &#10;&#9;C172.214600,325.308044 176.982666,323.696198 181.745773,322.069855 &#10;&#9;C210.339142,312.306732 238.923996,302.518585 267.537109,292.813690 &#10;&#9;C269.999939,291.978333 271.246918,291.039673 271.241882,288.036469 &#10;&#9;C271.132294,222.718353 271.155792,157.400024 271.145355,92.081749 &#10;&#9;C271.145264,91.591759 271.029816,91.101784 270.912750,90.170235 &#10;&#9;C236.595917,79.845711 202.155899,69.484123 167.208435,58.969864 &#10;&#9;C167.208435,132.413177 167.208435,205.450302 167.208435,279.001617 &#10;&#9;C161.198349,276.931915 155.695724,275.131805 150.287277,273.083130 &#10;&#9;C149.363785,272.733337 148.726532,271.382843 148.184479,270.372620 &#10;&#9;C147.906052,269.853699 148.126526,269.065521 148.126495,268.399017 &#10;&#9;C148.122955,190.583527 148.119644,112.768051 148.120468,34.952564 &#10;&#9;C148.120468,34.293598 148.176834,33.634632 148.234695,32.365845 &#10;&#9;C151.855515,33.365513 155.283524,34.240551 158.668900,35.257458 &#10;&#9;C200.676285,47.875755 242.660461,60.571907 284.706726,73.059090 &#10;&#9;C288.873932,74.296677 290.251923,75.980118 290.240723,80.513664 &#10;&#9;C290.058594,154.163071 290.074768,227.813141 290.215149,301.462738 &#10;&#9;C290.222656,305.393097 288.790771,306.816254 285.354706,307.983246 &#10;&#9;C243.379257,322.239838 201.451202,336.635956 159.128784,351.094055 &#10;z"/>
<path fill="#d8c3a5" opacity="1.000000" stroke="none" d="&#10;M117.970261,114.972427 &#10;&#9;C115.073959,115.838959 112.576279,116.626663 109.998322,117.439682 &#10;&#9;C109.998322,166.804672 109.998322,215.940994 109.998322,265.739929 &#10;&#9;C135.103668,274.343689 160.444427,283.028137 186.234863,291.866699 &#10;&#9;C186.234863,225.956818 186.234863,160.580933 186.234863,94.615982 &#10;&#9;C181.858582,95.830467 177.784439,96.961098 173.356735,98.189857 &#10;&#9;C173.356735,93.009766 173.356735,88.126816 173.356735,82.803894 &#10;&#9;C182.040115,80.186592 190.887192,77.519951 200.150085,74.727974 &#10;&#9;C200.150085,153.988495 200.150085,232.839050 200.150085,312.295563 &#10;&#9;C165.441864,300.409637 130.938187,288.593750 96.172493,276.688141 &#10;&#9;C96.172493,219.945740 96.172493,163.184875 96.172493,105.989075 &#10;&#9;C111.222450,101.476112 126.436508,96.913933 141.956726,92.259956 &#10;&#9;C141.956726,97.624481 141.956726,102.426239 141.956726,107.682739 &#10;&#9;C134.144272,110.071030 126.256584,112.482315 117.970261,114.972427 &#10;z"/>
<path fill="#fafafa00" opacity="1.000000" stroke="none" d="&#10;M198.902496,381.906464 &#10;&#9;C201.752701,381.896545 204.118622,381.896545 206.484543,381.896545 &#10;&#9;C206.480972,382.182373 206.477402,382.468231 206.473846,382.754059 &#10;&#9;C197.467056,382.754059 188.460266,382.754059 179.453476,382.754059 &#10;&#9;C179.447266,382.474823 179.441040,382.195618 179.434830,381.916382 &#10;&#9;C185.762619,381.916382 192.090408,381.916382 198.902496,381.906464 &#10;z"/>
</svg>