<svg width="398px" height="398px" xmlns="http://www.w3.org/2000/svg" xml:space="preserve" enable-background="new 0 0 406 398" version="1.1" transform="rotate(0) scale(1, 1)">
 <g>
  <title>Layer 1</title>
  <path stroke="#d8c3a5" stroke-opacity="0" id="svg_1" d="m221.56672,397.99997c-104.96756,0 -209.2257,0 -313.53245,0c0,-133.26906 0,-266.53813 0,-399.90383c191.82766,0 383.70407,0 575.8065,0c0,133.23671 0,266.57025 0,399.90383c-87.09204,0 -174.32832,0 -262.27406,0m-58.29627,-42.8839c56.05146,-13.51768 112.12071,-26.99889 168.08413,-40.69697c2.06645,-0.50577 3.61268,-3.00892 4.45491,-4.80402c0.69937,-1.49067 -0.06813,-3.30984 -0.06418,-4.98334c0.17144,-73.01367 0.34148,-146.0274 0.58466,-219.04097c0.01208,-3.61753 -1.46737,-5.56194 -6.95672,-6.70813c-44.52785,-9.29756 -88.93394,-18.88735 -133.38898,-28.36025c-20.50574,-4.36954 -41.0379,-8.67691 -62.23523,-13.15553c0,1.94419 -0.00009,3.41637 0.00004,4.88857c0.0056,70.84138 0.01108,141.68275 0.01703,212.52413c0.00058,6.8664 -0.17171,13.73685 0.14292,20.59604c0.06904,1.50549 1.3686,3.84117 2.96617,4.30712c7.66975,2.23677 15.63618,3.96315 24.71446,6.16622c0,-74.01929 0,-147.09474 0,-221.01924c49.62091,10.53226 98.05513,20.81265 146.33254,31.05973c0.18788,0.84909 0.39141,1.3396 0.39158,1.83016c0.02178,65.6497 -0.01416,131.29945 0.16654,196.94891c0.00874,3.18678 -2.20984,3.88325 -5.50304,4.67631c-40.60675,9.77907 -81.19354,19.59969 -121.78524,29.41009c-6.34884,1.5344 -12.6967,3.0709 -19.79033,4.78669c0,-5.82344 0.24983,-10.83172 -0.15106,-15.81376c-0.12153,-1.51027 -1.55404,-3.78883 -3.22276,-4.2751c-7.75743,-2.26061 -15.80843,-4.01576 -23.75073,-5.95087c0,18.28842 0,36.10095 0,54.62839c9.84027,-2.32946 18.9224,-4.47946 28.99329,-7.01417m45.48451,-135.50826c0,-46.37915 0,-92.75829 0,-139.7459c-14.41993,3.09613 -26.98413,5.79382 -39.61544,8.50592c0,4.42577 0.10748,8.44258 -0.03484,12.45494c-0.10904,3.07452 1.87559,3.80774 5.65695,2.88578c4.19649,-1.02315 8.38104,-2.07084 12.95901,-3.20393c0,66.05401 0,131.69933 0,197.83422c-36.46123,-8.85974 -72.18969,-17.5414 -107.77653,-26.18868c0,-48.75326 0.02737,-96.81427 -0.06961,-144.87515c-0.00568,-2.81407 1.15473,-4.11519 5.18616,-4.86497c11.80647,-2.19582 23.54009,-4.62193 35.14566,-7.29841c2.42382,-0.55898 5.75821,-2.48034 5.9401,-3.94424c0.53863,-4.33496 -0.28894,-8.75511 -0.60945,-13.54874c-22.75309,4.84512 -44.1769,9.4072 -65.88414,14.02961c0,2.71379 0,5.21396 -0.00001,7.71415c-0.00014,50.40905 -0.0003,100.8181 -0.00044,151.22716c-0.00004,13.10982 0.0906,12.91931 17.70103,17.12179c32.69764,7.80275 65.2663,15.87624 97.91387,23.78475c10.7967,2.61541 21.6711,5.06992 33.48688,7.82589c0,-33.49585 0,-66.10251 0.00078,-99.71417l0.00002,0z" fill="#d8c3a5"/>
  <path stroke="null" id="svg_2" d="m164.17123,354.52197c-9.58509,2.33063 -18.67537,4.46988 -28.52447,6.78769c0,-18.43478 0,-36.15824 0,-54.3552c7.94942,1.92544 16.00764,3.67181 23.77203,5.92111c1.67021,0.48383 3.10401,2.75101 3.22565,4.25372c0.40125,4.95713 0.15119,9.94037 0.15119,15.73468c7.09999,-1.70721 13.45354,-3.23602 19.80807,-4.76275c40.62811,-9.76133 81.25128,-19.53284 121.89444,-29.263c3.29615,-0.7891 5.51672,-1.48209 5.50797,-4.65293c-0.18086,-65.32114 -0.14489,-130.64258 -0.16669,-195.96396c-0.00017,-0.48811 -0.20388,-0.97617 -0.39193,-1.82101c-48.32069,-10.19584 -96.79834,-20.42481 -146.46374,-30.9044c0,73.5548 0,146.2648 0,219.91392c-9.08641,-2.19205 -17.05998,-3.90979 -24.73662,-6.13538c-1.599,-0.46362 -2.89972,-2.78762 -2.96882,-4.28558c-0.3149,-6.82489 -0.14246,-13.66098 -0.14304,-20.49305c-0.00595,-70.4871 -0.01143,-140.97419 -0.01705,-211.46129c-0.00013,-1.46483 -0.00004,-2.92966 -0.00004,-4.86412c21.21634,4.45623 41.7669,8.74205 62.29103,13.08974c44.4949,9.42552 88.94081,18.96735 133.50858,28.21842c5.49427,1.14046 6.97504,3.07515 6.96295,6.67459c-0.24341,72.64843 -0.4136,145.29701 -0.58519,217.94554c-0.00395,1.66513 0.76423,3.47519 0.06423,4.95841c-0.84298,1.78613 -2.39059,4.27676 -4.4589,4.78c-56.0136,13.62957 -112.13312,27.04337 -168.72966,40.68485z" fill="#fafafa"/>
  <path stroke="null" id="svg_3" d="m209.97038,219.00001c-0.00039,32.94357 -0.00039,65.38716 -0.00039,98.7155c-11.81414,-2.74219 -22.68703,-5.18442 -33.48222,-7.78675c-32.64303,-7.86896 -65.20715,-15.90207 -97.90024,-23.6658c-17.60798,-4.18146 -17.69861,-3.99191 -17.69857,-17.03616c0.00014,-50.15696 0.0003,-100.31392 0.00044,-150.47087c0.00001,-2.48768 0.00001,-4.97536 0.00001,-7.67557c21.70423,-4.5993 43.12504,-9.13856 65.87496,-13.95945c0.32046,4.76966 1.14793,9.1677 0.60937,13.48098c-0.18187,1.45658 -3.51579,3.36834 -5.93928,3.92452c-11.60395,2.66309 -23.33594,5.07708 -35.14077,7.26191c-4.03087,0.74603 -5.19111,2.04065 -5.18544,4.84064c0.09697,47.82053 0.06961,95.64118 0.06961,144.15062c35.58188,8.60404 71.30538,17.24228 107.76152,26.05771c0,-65.80414 0,-131.12115 0,-196.84483c-4.57733,1.12743 -8.76132,2.16988 -12.95721,3.18791c-3.78083,0.91734 -5.76519,0.18779 -5.65616,-2.87135c0.14229,-3.99229 0.03483,-7.98901 0.03483,-12.39265c12.62955,-2.69853 25.19199,-5.38273 39.60992,-8.46338c0,46.75261 0,92.89981 -0.00038,139.54701l0,0.00002z" fill="#fdfdfd"/>
 </g>

</svg>